<svg height="2222" width="720" xmlns="http://www.w3.org/2000/svg">
<rect height="2222" fill="#555" width="720"></rect>
<text fill="#7f7" font-family="Courier New" font-size="12" xml:space="preserve">
<tspan x="10" y="26"></tspan>
<tspan x="10" y="42">&gt; npmdoc-monitor@0.0.1 test /home/travis/build/npmdoc/node-npmdoc-monitor</tspan>
<tspan x="10" y="58">&gt; (set -e; export PORT=$(utility2 shServerPortRandom); utility2 test test.js)</tspan>
<tspan x="10" y="74"></tspan>
<tspan x="10" y="90"></tspan>
<tspan x="10" y="106">[MODE_BUILD=npmTest] - 2017-04-02T19:23:17Z - npm-testing /home/travis/build/npmdoc/node-npmdoc-\</tspan>
<tspan x="10" y="122">monitor</tspan>
<tspan x="10" y="138"></tspan>
<tspan x="10" y="154"></tspan>
<tspan x="10" y="170">covering $ /home/travis/.nvm/versions/node/v6.10.1/bin/node /home/travis/build/npmdoc/node-npmdo\</tspan>
<tspan x="10" y="186">c-monitor/test.js</tspan>
<tspan x="10" y="202">merging file:///home/travis/build/npmdoc/node-npmdoc-monitor/tmp/build/test-report.json to test-\</tspan>
<tspan x="10" y="218">report</tspan>
<tspan x="10" y="234">&gt; server listening on http-port 38747</tspan>
<tspan x="10" y="250"></tspan>
<tspan x="10" y="266">                        __________</tspan>
<tspan x="10" y="282">_______ ___________________(_)_  /______________ </tspan>
<tspan x="10" y="298">__  __ `__ \  __ \_  __ \_  /_  __/  __ \_  ___/</tspan>
<tspan x="10" y="314">_  / / / / / /_/ /  / / /  / / /_ / /_/ /  /</tspan>
<tspan x="10" y="330">/_/ /_/ /_/\____//_/ /_//_/  \__/ \____//_/</tspan>
<tspan x="10" y="346"></tspan>
<tspan x="10" y="362">created apidoc file:///home/travis/build/npmdoc/node-npmdoc-monitor/tmp/build/apidoc.html</tspan>
<tspan x="10" y="378"></tspan>
<tspan x="10" y="394"></tspan>
<tspan x="10" y="410">browserTest - created electron entry-page /home/travis/build/npmdoc/node-npmdoc-monitor/tmp/elec\</tspan>
<tspan x="10" y="426">tron.15b301f257a0.b5c085e563b9e.html</tspan>
<tspan x="10" y="442"></tspan>
<tspan x="10" y="458">Xlib:  extension "RANDR" missing on display ":99.0".</tspan>
<tspan x="10" y="474">merging file:///home/travis/build/npmdoc/node-npmdoc-monitor/tmp/build/test-report.json to test-\</tspan>
<tspan x="10" y="490">report</tspan>
<tspan x="10" y="506">Xlib:  extension "RANDR" missing on display ":99.0".</tspan>
<tspan x="10" y="522">[5958:0402/192320:WARNING:audio_manager.cc(314)] Multiple instances of AudioManager detected</tspan>
<tspan x="10" y="538">[5958:0402/192320:WARNING:audio_manager.cc(275)] Multiple instances of AudioManager detected</tspan>
<tspan x="10" y="554">[5978:0402/192320:ERROR:sandbox_linux.cc(343)] InitializeSandbox() called with multiple threads \</tspan>
<tspan x="10" y="570">in process gpu-process. </tspan>
<tspan x="10" y="586">[5958:0402/192320:ERROR:browser_gpu_channel_host_factory.cc(131)] Failed to create channel.</tspan>
<tspan x="10" y="602"></tspan>
<tspan x="10" y="618">browserTest - opened url /home/travis/build/npmdoc/node-npmdoc-monitor/tmp/build/apidoc.html</tspan>
<tspan x="10" y="634"></tspan>
<tspan x="10" y="650">[node test-case 1 of 6 passed] - testCase_buildLib_default</tspan>
<tspan x="10" y="666">[node test-case 2 of 6 passed] - testCase_buildReadme_default</tspan>
<tspan x="10" y="682">[node test-case 3 of 6 passed] - testCase_buildTest_default</tspan>
<tspan x="10" y="698"></tspan>
<tspan x="10" y="714">browserTest - created electron entry-page /home/travis/build/npmdoc/node-npmdoc-monitor/tmp/elec\</tspan>
<tspan x="10" y="730">tron.15b301f2d960.0437cb076e07b.html</tspan>
<tspan x="10" y="746"></tspan>
<tspan x="10" y="762">(node:5944) DeprecationWarning: process.EventEmitter is deprecated. Use require('events') instea\</tspan>
<tspan x="10" y="778">d.</tspan>
<tspan x="10" y="794">Monitor service started on host: localhost</tspan>
<tspan x="10" y="810"></tspan>
<tspan x="10" y="826">External connections disabled.</tspan>
<tspan x="10" y="842">See /home/travis/build/npmdoc/node-npmdoc-monitor/config/external.js for more information.</tspan>
<tspan x="10" y="858">Xlib:  extension "RANDR" missing on display ":99.0".</tspan>
<tspan x="10" y="874">&gt; server listening on http-port 61725</tspan>
<tspan x="10" y="890">merging file:///home/travis/build/npmdoc/node-npmdoc-monitor/tmp/build/test-report.json to test-\</tspan>
<tspan x="10" y="906">report</tspan>
<tspan x="10" y="922">Xlib:  extension "RANDR" missing on display ":99.0".</tspan>
<tspan x="10" y="938">[6020:0402/192322:WARNING:audio_manager.cc(314)] Multiple instances of AudioManager detected</tspan>
<tspan x="10" y="954">[6020:0402/192322:WARNING:audio_manager.cc(275)] Multiple instances of AudioManager detected</tspan>
<tspan x="10" y="970">[6050:0402/192322:ERROR:sandbox_linux.cc(343)] InitializeSandbox() called with multiple threads \</tspan>
<tspan x="10" y="986">in process gpu-process. </tspan>
<tspan x="10" y="1002">[6020:0402/192322:ERROR:browser_gpu_channel_host_factory.cc(131)] Failed to create channel.</tspan>
<tspan x="10" y="1018"></tspan>
<tspan x="10" y="1034">browserTest - opened url http://127.0.0.1:38747?modeTest=1</tspan>
<tspan x="10" y="1050"></tspan>
<tspan x="10" y="1066">[6020:0402/192323:INFO:CONSOLE(245)] "----------|-----------|-----------|-----------|-----------\</tspan>
<tspan x="10" y="1082">|</tspan>
<tspan x="10" y="1098">File      |   % Stmts |% Branches |   % Funcs |   % Lines |</tspan>
<tspan x="10" y="1114">----------|-----------|-----------|-----------|-----------|</tspan>
<tspan x="10" y="1130">----------|-----------|-----------|-----------|-----------|</tspan>
<tspan x="10" y="1146">All files |       100 |       100 |       100 |       100 |</tspan>
<tspan x="10" y="1162">----------|-----------|-----------|-----------|-----------|</tspan>
<tspan x="10" y="1178">", source: file:///home/travis/build/npmdoc/node-npmdoc-monitor/tmp/electron.15b301f2d960.0437cb\</tspan>
<tspan x="10" y="1194">076e07b.html (245)</tspan>
<tspan x="10" y="1210">[6020:0402/192323:INFO:CONSOLE(245)] "created coverage file:///tmp/build/coverage.html/index.htm\</tspan>
<tspan x="10" y="1226">l", source: file:///home/travis/build/npmdoc/node-npmdoc-monitor/tmp/electron.15b301f2d960.0437c\</tspan>
<tspan x="10" y="1242">b076e07b.html (245)</tspan>
<tspan x="10" y="1258">[node test-case 4 of 6 passed] - testCase_buildApp_default</tspan>
<tspan x="10" y="1274"></tspan>
<tspan x="10" y="1290">browserTest - created screen-capture file:///home/travis/build/npmdoc/node-npmdoc-monitor/tmp/bu\</tspan>
<tspan x="10" y="1306">ild/screen-capture.npmTest.browser._2Fhome_2Ftravis_2Fbuild_2Fnpmdoc_2Fnode-npmdoc-monitor_2Ftmp\</tspan>
<tspan x="10" y="1322">_2Fbuild_2Fapidoc.html.png</tspan>
<tspan x="10" y="1338"></tspan>
<tspan x="10" y="1354">browserTest - created screen-capture file:///home/travis/build/npmdoc/node-npmdoc-monitor/tmp/bu\</tspan>
<tspan x="10" y="1370">ild/screen-capture.npmTest.browser._2Fhome_2Ftravis_2Fbuild_2Fnpmdoc_2Fnode-npmdoc-monitor_2Ftmp\</tspan>
<tspan x="10" y="1386">_2Fbuild_2Fapidoc.html.html</tspan>
<tspan x="10" y="1402"></tspan>
<tspan x="10" y="1418">browserTest - exit-code 0 - /home/travis/build/npmdoc/node-npmdoc-monitor/tmp/build/apidoc.html</tspan>
<tspan x="10" y="1434"></tspan>
<tspan x="10" y="1450">[node test-case 5 of 6 passed] - testCase_buildApidoc_default</tspan>
<tspan x="10" y="1466"></tspan>
<tspan x="10" y="1482">browserTest - created screen-capture file:///home/travis/build/npmdoc/node-npmdoc-monitor/tmp/bu\</tspan>
<tspan x="10" y="1498">ild/screen-capture.npmTest.browser..png</tspan>
<tspan x="10" y="1514"></tspan>
<tspan x="10" y="1530">browserTest - created screen-capture file:///home/travis/build/npmdoc/node-npmdoc-monitor/tmp/bu\</tspan>
<tspan x="10" y="1546">ild/screen-capture.npmTest.browser..html</tspan>
<tspan x="10" y="1562"></tspan>
<tspan x="10" y="1578">browserTest - exit-code 0 - http://127.0.0.1:38747?modeTest=1</tspan>
<tspan x="10" y="1594"></tspan>
<tspan x="10" y="1610"></tspan>
<tspan x="10" y="1626">browserTest - merged coverage from /home/travis/build/npmdoc/node-npmdoc-monitor/tmp/coverage.np\</tspan>
<tspan x="10" y="1642">mTest.browser.%2F.json</tspan>
<tspan x="10" y="1658"></tspan>
<tspan x="10" y="1674"></tspan>
<tspan x="10" y="1690">browserTest - merging test-report from /home/travis/build/npmdoc/node-npmdoc-monitor/tmp/test-re\</tspan>
<tspan x="10" y="1706">port.npmTest.browser.%2F.json</tspan>
<tspan x="10" y="1722"></tspan>
<tspan x="10" y="1738">[node test-case 6 of 6 passed] - testCase_webpage_default</tspan>
<tspan x="10" y="1754">----------------------------|-----------|-----------|-----------|-----------|</tspan>
<tspan x="10" y="1770">File                        |   % Stmts |% Branches |   % Funcs |   % Lines |</tspan>
<tspan x="10" y="1786">----------------------------|-----------|-----------|-----------|-----------|</tspan>
<tspan x="10" y="1802">   node-npmdoc-monitor/     |       100 |       100 |       100 |       100 |</tspan>
<tspan x="10" y="1818">      example.js            |       100 |       100 |       100 |       100 |</tspan>
<tspan x="10" y="1834">      lib.npmdoc_monitor.js |       100 |       100 |       100 |       100 |</tspan>
<tspan x="10" y="1850">      test.js               |       100 |       100 |       100 |       100 |</tspan>
<tspan x="10" y="1866">----------------------------|-----------|-----------|-----------|-----------|</tspan>
<tspan x="10" y="1882">All files                   |       100 |       100 |       100 |       100 |</tspan>
<tspan x="10" y="1898">----------------------------|-----------|-----------|-----------|-----------|</tspan>
<tspan x="10" y="1914"></tspan>
<tspan x="10" y="1930">created coverage file:///home/travis/build/npmdoc/node-npmdoc-monitor/tmp/build/coverage.html/in\</tspan>
<tspan x="10" y="1946">dex.html</tspan>
<tspan x="10" y="1962">merging file:///home/travis/build/npmdoc/node-npmdoc-monitor/tmp/build/test-report.json to test-\</tspan>
<tspan x="10" y="1978">report</tspan>
<tspan x="10" y="1994"></tspan>
<tspan x="10" y="2010">-------------------------------------------------------</tspan>
<tspan x="10" y="2026">| test-report - buildNpmdoc - node - linux v6.10.1 - 2017-04-02T19:22:41.258Z</tspan>
<tspan x="10" y="2042">|   49552 ms            0 failed        6 passed      |</tspan>
<tspan x="10" y="2058">-------------------------------------------------------</tspan>
<tspan x="10" y="2074"></tspan>
<tspan x="10" y="2090">created test-report file:///home/travis/build/npmdoc/node-npmdoc-monitor/tmp/build/test-report.h\</tspan>
<tspan x="10" y="2106">tml</tspan>
<tspan x="10" y="2122"></tspan>
<tspan x="10" y="2138"></tspan>
<tspan x="10" y="2154">npmTest - 0 failed tests</tspan>
<tspan x="10" y="2170"></tspan>
<tspan x="10" y="2186"></tspan>
<tspan x="10" y="2202">[MODE_BUILD=npmTest] - 2017-04-02T19:23:34Z - EXIT_CODE - 0</tspan>
</text>
</svg>
